<?xml version="1.0" standalone="no"?>
<!DOCTYPE svg PUBLIC "-//W3C//DTD SVG 20010904//EN"
 "http://www.w3.org/TR/2001/REC-SVG-20010904/DTD/svg10.dtd">
<svg version="1.0" xmlns="http://www.w3.org/2000/svg"
 width="1024.000000pt" height="1024.000000pt" viewBox="0 0 1024.000000 1024.000000"
 preserveAspectRatio="xMidYMid meet">

<g transform="translate(0.000000,1024.000000) scale(0.100000,-0.100000)"
fill="#000000" stroke="none">
<path d="M3560 7326 c-25 -7 -79 -27 -120 -45 -99 -45 -169 -50 -281 -22 -175
44 -316 49 -439 14 -75 -21 -115 -42 -211 -116 -46 -35 -138 -94 -204 -132
-177 -100 -276 -174 -416 -314 -189 -189 -323 -378 -445 -626 -75 -154 -136
-334 -158 -464 -18 -108 -21 -370 -6 -471 16 -102 42 -210 51 -210 5 0 9 7 9
15 0 8 22 71 49 141 54 137 108 219 221 329 l61 60 -89 -185 c-165 -340 -221
-527 -235 -776 -2 -33 -7 -65 -11 -72 -9 -15 -83 -16 -124 -1 -18 6 -41 26
-52 44 -50 81 -123 110 -198 79 -53 -21 -84 -63 -89 -123 -6 -57 23 -104 80
-134 36 -19 44 -19 123 -7 68 11 92 11 126 0 l43 -12 -57 -53 c-75 -70 -129
-95 -204 -95 -110 0 -174 -57 -174 -156 0 -42 5 -59 26 -84 36 -42 74 -60 127
-60 61 0 105 32 142 104 35 67 83 101 170 121 62 15 65 12 65 -61 0 -50 -16
-89 -50 -119 -52 -47 -66 -131 -31 -195 19 -37 88 -80 127 -80 47 0 99 30 127
72 31 48 35 94 12 158 -8 23 -15 64 -15 91 0 40 5 55 31 84 25 29 38 35 69 35
47 0 70 -27 70 -80 0 -19 9 -54 20 -78 15 -34 29 -47 66 -64 41 -18 52 -19 88
-8 53 16 103 66 112 114 16 87 -36 155 -134 176 -110 24 -172 104 -172 221 0
93 16 164 59 254 l37 79 59 -85 c209 -300 449 -496 733 -599 34 -12 62 -27 62
-32 0 -18 -59 -124 -84 -151 -66 -71 -167 -85 -253 -36 -48 27 -61 31 -110 27
-49 -4 -61 -10 -89 -41 -44 -47 -51 -92 -26 -150 38 -86 128 -101 229 -38 68
42 143 45 143 6 0 -22 -58 -83 -104 -109 -22 -13 -61 -27 -86 -30 -25 -4 -62
-18 -83 -32 -93 -61 -88 -206 9 -261 48 -28 96 -29 151 -4 48 22 64 43 98 131
14 35 35 75 47 88 38 40 98 65 158 66 l55 1 3 -39 c2 -22 -4 -68 -14 -103 -22
-80 -10 -130 40 -168 115 -88 278 11 251 152 -3 19 -25 55 -50 83 -59 67 -75
100 -75 157 1 64 33 139 107 251 152 226 210 429 200 702 -5 133 -9 161 -57
345 -42 165 -52 219 -56 310 l-4 110 19 -65 c11 -36 40 -119 66 -185 108 -284
135 -477 100 -705 -19 -124 -45 -217 -95 -331 -22 -51 -39 -93 -37 -94 14 -11
208 -73 310 -100 71 -19 131 -36 134 -38 2 -3 5 -24 6 -48 l2 -44 -90 -18
c-74 -16 -100 -17 -146 -8 -120 24 -175 5 -204 -72 -13 -36 -15 -51 -6 -85 19
-70 97 -115 168 -97 16 3 58 35 95 71 55 53 72 64 100 64 18 0 40 -5 48 -10
23 -14 -22 -92 -83 -143 -27 -23 -55 -54 -63 -69 -49 -94 36 -205 149 -195 92
8 137 67 137 179 0 36 3 74 6 83 9 23 97 65 138 65 42 0 72 -33 82 -89 11 -69
25 -100 60 -131 66 -58 166 -34 209 51 45 85 -25 209 -116 209 -18 0 -38 13
-62 39 -50 56 -55 67 -83 206 -13 69 -43 176 -64 238 -22 61 -36 107 -31 102
5 -6 34 -52 65 -104 52 -87 86 -171 86 -211 0 -36 26 -50 141 -74 152 -33 315
-53 529 -66 228 -14 328 -27 421 -56 83 -26 183 -85 217 -129 26 -32 29 -83 7
-124 -33 -65 -176 -146 -327 -186 -91 -24 -321 -55 -406 -55 -92 0 -52 -67 58
-97 90 -24 396 -24 526 0 247 46 449 163 522 301 24 46 27 61 27 161 0 96 -3
116 -24 159 -49 100 -237 246 -395 307 -45 17 -189 62 -321 100 -410 117 -585
199 -731 344 -73 72 -99 121 -164 306 -100 283 -180 417 -364 607 -87 90 -154
143 -315 253 -69 46 -147 105 -175 130 l-50 46 85 22 c231 61 348 99 539 179
52 21 129 47 170 57 350 82 529 368 430 687 -26 85 -71 148 -171 238 -48 45
-97 96 -108 113 -11 18 -26 70 -34 117 -8 47 -25 109 -37 138 -29 67 -101 133
-170 155 -61 20 -165 21 -230 3z m-513 -240 c70 -32 148 -106 183 -175 66
-130 37 -295 -70 -401 -61 -61 -126 -90 -217 -97 -177 -14 -345 87 -399 239
-23 65 -20 171 7 243 33 88 123 176 210 204 93 30 203 25 286 -13z m892 -562
c45 -57 15 -143 -39 -114 -24 13 -50 61 -50 93 0 51 55 64 89 21z m-1379 -200
c29 -9 143 -51 252 -94 376 -150 480 -174 733 -174 192 0 314 17 460 65 50 16
109 43 133 59 52 36 54 24 6 -30 -105 -116 -380 -200 -658 -200 -284 0 -551
64 -795 190 -63 33 -121 60 -128 60 -7 0 -20 -11 -29 -25 -16 -24 -15 -27 1
-45 23 -25 236 -129 358 -174 162 -60 440 -116 578 -116 21 0 39 -4 39 -9 0
-5 -69 -28 -152 -51 -254 -70 -320 -91 -393 -124 -147 -69 -259 -182 -336
-341 -120 -250 -103 -546 46 -768 42 -63 45 -72 45 -135 0 -77 -14 -173 -36
-250 -18 -63 -11 -64 -169 13 -350 170 -561 400 -611 666 -20 104 -14 269 15
380 68 266 259 489 527 616 l74 35 -73 77 c-144 154 -176 290 -85 366 24 20
40 25 87 25 32 0 81 -7 111 -16z m1118 -1774 c81 -38 157 -116 201 -204 18
-37 31 -70 28 -72 -2 -3 -21 17 -41 45 -50 67 -152 160 -201 182 -82 38 -166
19 -229 -51 -88 -98 -87 -265 3 -535 11 -33 17 -62 14 -65 -9 -9 -73 75 -104
138 -67 138 -75 291 -21 407 80 170 203 225 350 155z"/>
<path d="M2818 6977 c-134 -44 -200 -168 -168 -318 23 -106 83 -167 189 -191
46 -10 64 -9 119 5 85 22 128 56 160 125 30 66 34 165 9 224 -20 47 -90 118
-142 142 -50 24 -119 29 -167 13z m215 -139 c38 -44 7 -118 -50 -118 -38 0
-73 36 -73 76 0 65 79 92 123 42z"/>
<path d="M4427 5872 c-14 -15 -22 -115 -52 -687 -32 -605 -34 -670 -20 -692
15 -22 21 -23 123 -23 71 0 114 4 125 13 15 10 19 64 37 416 11 223 20 418 20
435 0 17 4 26 8 20 5 -5 68 -148 141 -319 73 -170 140 -318 148 -327 20 -22
88 -32 158 -23 67 8 46 -27 221 379 l132 308 6 -93 c3 -52 11 -202 16 -334 16
-386 20 -444 37 -460 22 -22 225 -21 247 1 20 19 20 39 1 409 -8 160 -22 441
-30 625 -14 275 -19 338 -32 353 -14 15 -35 17 -155 17 -119 0 -140 -2 -155
-18 -10 -10 -87 -194 -172 -410 -85 -216 -158 -389 -162 -385 -4 5 -78 184
-164 398 -86 215 -164 396 -173 403 -11 8 -58 12 -152 12 -119 0 -139 -2 -153
-18z"/>
<path d="M8209 5867 c-46 -31 -61 -62 -56 -120 3 -38 11 -56 36 -80 28 -29 38
-32 104 -35 89 -5 138 13 167 60 40 66 13 155 -55 184 -55 23 -155 18 -196 -9z"/>
<path d="M6284 5495 c-179 -39 -325 -189 -363 -373 -16 -76 -14 -228 4 -297
54 -212 213 -351 428 -375 90 -9 206 -1 282 21 89 25 185 88 185 120 0 24 -64
127 -83 135 -8 3 -52 -6 -98 -19 -164 -48 -263 -44 -351 12 -47 30 -84 89 -90
145 l-3 29 309 2 c308 2 310 2 328 25 36 44 14 249 -38 355 -90 183 -287 269
-510 220z m200 -219 c47 -19 87 -76 94 -131 l5 -45 -192 0 c-212 0 -205 -3
-175 68 19 46 60 90 99 108 39 17 127 18 169 0z"/>
<path d="M7475 5497 c-71 -19 -113 -43 -166 -94 l-47 -45 -12 51 c-17 70 -35
81 -137 81 -134 0 -123 46 -123 -513 0 -446 1 -475 18 -490 15 -14 41 -17 133
-17 76 0 119 4 127 12 9 9 12 97 12 336 l0 325 37 45 c49 60 88 82 146 82 59
0 109 -22 134 -58 16 -24 18 -61 23 -368 4 -269 8 -344 19 -357 18 -23 242
-25 260 -3 9 10 11 119 9 403 l-3 388 -33 67 c-37 77 -88 120 -167 143 -72 22
-172 27 -230 12z"/>
<path d="M8187 5478 c-15 -12 -17 -62 -19 -538 l-3 -526 -25 -49 c-30 -57 -90
-95 -151 -95 -44 0 -45 -2 -54 -112 -6 -69 -5 -78 14 -97 18 -18 33 -21 104
-21 229 0 367 123 397 354 5 39 10 292 10 561 0 428 -2 493 -16 513 -14 21
-23 22 -128 22 -74 0 -118 -4 -129 -12z"/>
<path d="M8666 5474 c-14 -13 -16 -62 -16 -382 0 -398 4 -437 55 -513 60 -91
161 -133 308 -127 108 4 178 31 250 98 49 44 46 45 62 -25 4 -16 11 -36 17
-42 14 -17 219 -18 236 -1 9 9 12 132 12 493 0 454 -1 483 -18 498 -15 14 -40
17 -130 17 -103 0 -112 -2 -126 -22 -14 -19 -16 -69 -16 -345 l0 -323 -40 -44
c-52 -57 -94 -76 -165 -76 -71 0 -109 20 -135 70 -19 37 -20 58 -20 373 0 311
-1 335 -18 350 -26 24 -233 25 -256 1z"/>
</g>
</svg>
